<svg xmlns="http://www.w3.org/2000/svg" viewBox="0 0 750 570" role="img" aria-labelledby="title desc"><title id="title">Data and reporting</title><desc id="desc">A dashboard with charts, financial trends and connected data sources.</desc><defs><linearGradient id="bg" x1="0" y1="0" x2="1" y2="1"><stop stop-color="#83c9ff"/><stop offset="1" stop-color="#426fc8"/></linearGradient><filter id="s"><feDropShadow dx="0" dy="14" stdDeviation="14" flood-opacity=".2"/></filter></defs><rect width="750" height="570" fill="url(#bg)"/><circle cx="660" cy="58" r="165" fill="#fff" opacity=".15"/><g filter="url(#s)"><rect x="82" y="80" width="586" height="410" rx="24" fill="#fff"/><rect x="108" y="106" width="534" height="61" rx="12" fill="#0d0031"/><circle cx="141" cy="136" r="11" fill="#83c9ff"/><text x="165" y="142" fill="#fff" font-family="Arial, sans-serif" font-size="21" font-weight="700">OPERATIONS DASHBOARD</text><rect x="112" y="200" width="154" height="145" rx="14" fill="#eaf5ff"/><path d="M137 311l29-43 31 19 33-63" fill="none" stroke="#426fc8" stroke-width="10" stroke-linecap="round" stroke-linejoin="round"/><path d="M137 311h100" stroke="#0d0031" stroke-width="5" stroke-linecap="round" opacity=".2"/><rect x="292" y="200" width="154" height="145" rx="14" fill="#0d0031"/><path d="M318 310V249h24v61M367 310V229h24v81M416 310V268h24v42" fill="#83c9ff"/><rect x="472" y="200" width="166" height="145" rx="14" fill="#f6f3ff"/><circle cx="555" cy="273" r="53" fill="none" stroke="#426fc8" stroke-width="16" stroke-dasharray="104 154" stroke-linecap="round"/><text x="555" y="279" text-anchor="middle" fill="#0d0031" font-family="Arial, sans-serif" font-size="20" font-weight="700">78%</text><rect x="112" y="374" width="526" height="70" rx="14" fill="#eef7ff"/><path d="M142 423h110M277 423h110M412 423h110M547 423h60" stroke="#426fc8" stroke-width="12" stroke-linecap="round" opacity=".65"/></g><g fill="#ffd95c"><circle cx="100" cy="106" r="8"/><circle cx="650" cy="106" r="8"/></g></svg>